<svg width="18" height="19" viewBox="0 0 18 19" fill="none" xmlns="http://www.w3.org/2000/svg">
<path d="M10.125 1.375V9.91797L12.6914 7.35156C13.1133 6.89453 13.8516 6.89453 14.2734 7.35156C14.7305 7.77344 14.7305 8.51172 14.2734 8.93359L9.77344 13.4336C9.35156 13.8906 8.61328 13.8906 8.19141 13.4336L3.69141 8.93359C3.23438 8.51172 3.23438 7.77344 3.69141 7.35156C4.11328 6.89453 4.85156 6.89453 5.27344 7.35156L7.875 9.91797V1.375C7.875 0.777344 8.36719 0.25 9 0.25C9.59766 0.25 10.125 0.777344 10.125 1.375ZM2.25 12.625H5.80078L7.38281 14.2422C8.26172 15.1211 9.70312 15.1211 10.582 14.2422L12.1641 12.625H15.75C16.9805 12.625 18 13.6445 18 14.875V16C18 17.2656 16.9805 18.25 15.75 18.25H2.25C0.984375 18.25 0 17.2656 0 16V14.875C0 13.6445 0.984375 12.625 2.25 12.625ZM15.1875 14.5938C14.6953 14.5938 14.3438 14.9805 14.3438 15.4375C14.3438 15.9297 14.6953 16.2812 15.1875 16.2812C15.6445 16.2812 16.0312 15.9297 16.0312 15.4375C16.0312 14.9805 15.6445 14.5938 15.1875 14.5938Z" fill="#0D0F11"/>
</svg>
