<svg width="200" height="200" viewBox="0 0 200 200" fill="none" xmlns="http://www.w3.org/2000/svg">
<path d="M72.9538 178.004C51.0608 179.12 14.8848 181.793 14.8078 183.47C14.7318 185.118 20.9578 182.421 63.0098 179.918C65.7748 179.753 68.5828 179.607 71.4168 179.475C71.8348 179.056 72.3348 178.58 72.9538 178.004Z" fill="black"/>
<path d="M120.885 177.146C121.165 177.487 121.455 177.845 121.768 178.244C121.833 178.327 121.887 178.401 121.951 178.483C154.74 178.519 181.576 179.588 182.202 179.294C185.718 177.642 151.229 177.113 120.885 177.147V177.146Z" fill="black"/>
<path d="M165.016 49.4827C164.835 49.4667 164.602 49.4427 164.34 49.4147C164.593 52.6897 164.799 56.4777 164.984 60.2177C164.772 73.1137 166.545 130.258 162.59 130.835C151.853 132.403 113.48 134.022 108.696 134.283C87.2596 135.452 46.6566 135.558 25.0096 133.701C18.3116 133.126 19.0126 133.518 18.8556 129.338C16.1166 56.4987 19.7966 43.0527 19.8156 42.0247C19.8376 40.8177 20.1206 38.3647 20.5606 37.2127C20.7336 36.7597 20.9986 36.3997 21.5706 36.3227C23.0476 36.1247 21.5376 35.7187 33.6866 34.7677C60.8216 32.6407 102.964 30.1827 135.968 32.2467C135.308 29.4177 135.241 26.4587 135.762 23.5647C94.7036 21.3877 26.1536 23.5087 15.1946 29.5367C13.1196 30.6777 12.6656 32.2737 12.0236 34.0437C6.68962 48.7627 8.81362 135.031 12.1286 149.53C12.8766 152.803 13.2946 154.569 15.1846 155.948C17.4696 157.616 24.0606 158.469 25.3096 158.52C26.1846 158.555 29.2546 159.212 32.9486 159.689C35.9246 160.073 40.7976 160.316 40.9356 160.334C50.1756 161.478 61.1556 161.526 78.3956 161.761C78.9066 161.768 78.8546 161.707 78.6746 164.097C77.9926 173.137 78.5976 173.285 77.5026 173.84C70.1546 180.545 70.9856 179.688 67.5256 184.18C66.5256 185.479 65.2556 187.367 65.3396 188.868C65.3866 189.704 65.4726 192.412 65.8176 193.122C67.1486 195.859 91.2106 194.865 94.6196 194.634C101.991 194.134 119.234 194.054 125.671 192.59C126.28 192.451 126.644 192.103 126.848 191.528C127.221 190.48 127.546 187.287 127.03 186.302C126.037 184.403 124.652 181.928 121.766 178.244C114.631 169.139 116.161 175.766 115.17 168.471C114.14 160.884 114.207 161.28 114.559 161.287C114.333 161.294 150.015 159.632 164.171 156.223C166.567 155.646 168.842 155.053 170.157 152.556C175.127 143.117 175.751 76.4307 173.91 48.4267C171.638 49.0417 171.208 49.0557 165.014 49.4827H165.016ZM115.883 178.776C116.172 179.586 116.368 179.607 116.683 179.58C117.533 179.508 116.826 177.787 116.05 173.978C119.503 176.994 123.261 182.601 125.541 185.859C126.375 187.051 124.153 186.898 110.275 187.765C110.083 187.777 73.6366 189.467 68.0236 188.713C65.5606 188.382 65.4556 188.829 71.4356 181.262C73.1536 179.087 77.1056 175.482 77.9206 174.953C78.3006 174.707 77.9386 175.355 77.7336 179.773C77.7056 180.385 78.2386 180.895 78.3996 180.482C79.6736 177.212 80.1866 165.261 80.0226 165.261C80.0226 161.738 79.8966 161.765 80.3256 161.764C95.2636 161.727 81.3226 162.312 106.326 161.614C112.562 161.44 110.413 161.567 112.562 161.399C112.855 161.376 112.76 161.564 112.874 162.742C113.53 169.52 115.228 176.933 115.884 178.775L115.883 178.776ZM169.242 151.263C168.116 154.146 166.236 154.54 157.868 156.281C152.673 157.362 120.488 159.607 120.464 159.609C117.235 159.894 91.9726 160.56 91.9716 160.524C46.9886 160.524 38.0366 158.533 28.7756 157.447C18.2956 156.218 15.2726 156.281 14.0546 151.592C13.4756 149.362 12.5246 145.588 12.4716 143.285C12.4436 142.022 12.1976 141.545 12.5776 141.698C17.0496 143.492 81.9686 143.992 111.602 142.959C126.977 142.423 123.342 142.17 136.314 141.628C163.464 140.493 167.915 138.81 171.343 138.804C171.428 142.172 170.272 148.622 169.24 151.264L169.242 151.263Z" fill="black"/>
<path d="M117.915 61.9779C117.485 57.4969 115.922 49.4439 110.295 45.2769C110.641 44.5499 110.346 43.6689 109.627 43.2989C107.082 41.9909 98.1084 37.8869 89.5444 39.9829C81.4514 41.9629 76.0754 46.8289 74.1394 48.8289C73.5374 49.4519 73.5864 50.4489 74.2394 51.0109C74.3304 51.0889 74.4264 51.1709 74.5244 51.2549C71.9614 55.6629 71.4854 61.2449 73.0064 68.7879C73.1084 69.2929 73.1404 69.4579 73.3334 69.5589C73.5534 69.6749 73.8014 69.5439 74.1274 69.4019C74.5794 69.2059 74.5604 69.0239 74.4364 68.5269C73.2504 63.7449 73.2794 56.4579 75.6664 52.2079C76.3954 52.7959 77.2424 52.6609 77.7534 52.1269C79.4124 50.3929 84.0594 46.2259 91.3544 44.9689C98.6824 43.7069 105.148 46.2519 107.587 47.4039C108.331 47.7539 109.2 47.4549 109.568 46.7219L109.588 46.6819C113.706 50.0689 116.203 56.8059 116.256 61.5909C116.266 62.4019 116.722 62.3349 117.686 62.2499C117.823 62.2379 117.926 62.1159 117.913 61.9769L117.915 61.9779ZM108.016 46.5009C105.491 45.3079 98.7984 42.6739 91.1864 43.9849C83.5984 45.2919 78.7604 49.6319 77.0324 51.4369C76.8544 51.6229 76.5594 51.6429 76.3594 51.4809C75.9064 51.1169 75.3414 50.6379 74.8924 50.2519C74.6734 50.0639 74.6574 49.7309 74.8594 49.5229C79.7834 44.4359 87.5424 40.3939 94.6224 40.3939C101.179 40.3939 107.187 43.1679 109.171 44.1869C109.414 44.3119 109.512 44.6119 109.389 44.8549L108.678 46.2719C108.555 46.5159 108.266 46.6159 108.017 46.4989L108.016 46.5009Z" fill="black"/>
<path d="M48.3934 93.731C48.2444 94.471 47.6974 94.361 47.5314 93.838C46.7804 91.474 47.1144 90.604 44.9494 88.992C44.7164 88.819 43.6164 87.982 43.4834 87.689C43.3164 87.322 43.7204 86.956 44.0214 87.096C46.9904 88.483 49.0384 90.517 48.3934 93.731Z" fill="black"/>
<path d="M111.256 67.3436C111.011 72.5256 111.044 73.0436 106.278 74.1466C100.563 75.4686 100.924 74.6856 99.8174 71.8796C98.8354 69.3886 99.2204 68.6756 98.6474 68.4576C98.2384 68.3026 98.3134 67.9106 97.1404 67.8116C94.7274 67.6086 94.0864 68.2516 92.5944 69.6416C92.4214 69.8026 92.4954 70.9096 92.5104 71.0546C92.7144 73.0346 92.5584 73.8996 92.4854 75.0626C92.3664 76.9466 90.2934 77.3276 88.2864 77.5426C84.6024 77.9376 83.0144 78.9586 81.4544 74.6056C80.8964 73.0496 79.3164 68.9416 80.7434 68.1086C82.7894 66.9146 88.7864 65.5886 89.0294 65.5496C93.2754 64.8786 91.7874 68.0266 92.6044 67.3566C95.8114 64.7286 97.7414 66.4486 98.1264 66.2436C98.3254 66.1376 97.6444 64.3406 99.5154 63.6306C100.617 63.2126 101.276 63.0696 105.93 62.3896C111.172 61.6236 111.028 62.4676 111.256 67.3436ZM109.57 67.2756C109.402 63.1426 109.928 63.6426 106.71 63.9466C106.686 63.9486 101.08 64.6966 100.319 65.0006C99.7934 65.2106 99.9194 65.5576 100.196 66.6566C101.002 69.8516 101.7 73.2786 102.889 73.0596C107.79 72.1576 107.414 72.1106 108.44 71.7856C109.331 71.5026 109.25 70.7636 109.57 67.2756ZM90.7874 71.9766C90.7524 70.6216 90.9584 71.0726 90.4324 67.4086C90.3494 66.8286 89.8734 66.6616 82.2404 69.0026C81.6524 69.1826 81.4134 69.2456 81.6784 70.1466C83.4824 76.2756 83.8174 76.6406 86.1124 76.1666C91.1204 75.1306 90.9044 76.5106 90.7874 71.9766Z" fill="black"/>
<path d="M102.329 90.1128C101.364 91.9758 99.2498 92.3848 98.5108 91.9258C97.9868 91.5998 98.4188 91.2668 99.0138 91.1658C101.62 90.7238 102.279 87.5528 102.069 84.9178C101.369 85.5038 99.5018 87.8528 96.1418 87.2818C95.6238 87.1938 95.0898 86.2918 96.6508 86.3368C98.4058 86.3878 100.289 85.4478 101.125 83.8408C101.583 82.9598 101.604 82.4628 102.283 82.3648C103.997 82.1168 103.615 87.6288 102.329 90.1128Z" fill="black"/>
<path d="M95.6244 70.4445C96.4054 70.5955 95.4994 71.8945 95.3914 75.6865C95.3674 76.5435 95.4944 77.4015 95.7514 78.2155C96.7464 81.3685 100.476 77.8505 101.62 78.0375C103.764 78.3875 95.7844 84.4275 94.2114 78.5465C93.6514 76.4535 94.6894 70.2645 95.6254 70.4455L95.6244 70.4445Z" fill="black"/>
<path d="M104.17 57.7979C104.535 58.4899 103.649 58.8499 103.114 58.7029C101.721 58.3189 100.441 58.0149 99.1815 58.2069C98.6345 58.2899 98.0205 57.7229 98.4595 57.1569C99.3115 56.0579 103.521 56.5679 104.17 57.7979Z" fill="black"/>
<path d="M86.5536 58.7416C87.5576 58.6856 87.6856 59.4106 87.0876 59.8696C86.0676 60.6526 85.4256 60.5326 83.9636 62.1346C83.5956 62.5386 83.2946 62.8776 82.8156 62.5916C81.4936 61.8016 84.3246 58.8656 86.5536 58.7416Z" fill="black"/>
<path d="M105.023 68.6706C105.012 67.4346 103.753 66.9846 103.095 67.9586C102.67 68.5826 103.035 69.9086 103.992 69.9086C104.585 69.9086 105.105 69.3506 105.023 68.6706Z" fill="black"/>
<path d="M86.8738 70.816C86.6668 71.296 86.8338 72.178 87.1928 72.5C87.5978 72.864 88.2828 72.845 88.5568 72.321C89.4608 70.596 87.4388 69.494 86.8738 70.816Z" fill="black"/>
<path d="M155.404 121.926L154.659 122.9C158.993 126.544 160.712 128.843 161.442 128.44C162.32 127.956 158.674 124.653 155.404 121.926Z" fill="black"/>
<path d="M142.241 112.77C128.313 105.244 115.11 103.828 114.737 100.44C114.734 100.415 114.362 98.5208 114.29 97.2488C114.125 94.3168 114.477 94.3738 115.133 88.7518C115.154 88.5738 115.777 83.2908 115.892 83.1538C115.899 83.1458 117.6 82.7668 117.958 82.6738C118.649 82.4948 119.315 82.2188 120.047 82.2058C120.235 82.2018 120.427 82.0928 120.605 82.0078C124.66 80.0758 124.185 78.5058 124.022 73.4438C124.022 73.4198 123.566 69.0338 123.463 68.5828C123.068 66.8628 122.739 65.2088 121.71 63.9398C120.361 62.2748 119.485 61.9438 118.61 61.7568C117.88 61.6008 115.758 61.2928 115.038 61.4878C113.727 61.8428 115.191 58.0588 111.175 52.7158C106.89 47.0148 100.919 46.7858 96.7787 46.2568C96.5287 46.2248 96.2667 46.3158 96.0087 46.3268C95.5517 46.3478 95.3097 46.0398 95.2587 45.7728C94.4087 41.2788 94.8457 41.2338 94.6917 39.3228C94.6277 38.5278 93.8457 38.6118 93.2667 39.1608C91.3847 40.9458 91.6287 40.8268 90.5437 42.5968C89.9627 43.5448 89.9847 43.2048 90.0487 38.5618C90.0617 37.6268 89.3237 37.4358 88.8387 37.8458C88.2436 38.3488 87.6057 38.8048 87.0407 39.3388C85.8477 40.4648 84.3077 42.3268 84.0597 44.3358C83.9147 45.5138 83.6227 47.1298 84.2037 48.8368C84.5047 49.7208 84.3247 48.9858 81.7347 50.8918C80.0927 52.1008 78.1837 54.4808 77.9247 54.8548C72.3747 62.8568 76.6607 67.3618 75.5817 67.7318C73.8057 68.3418 73.0766 68.6028 72.0887 69.1068C69.0097 70.6758 68.7577 74.7278 69.5027 78.1558C70.0797 80.8108 70.8687 84.4948 72.0107 86.7198C74.3077 91.1958 81.1527 87.7408 81.7667 88.9808C83.4767 92.4328 84.7317 94.4128 87.8107 96.7288C88.2547 97.0628 88.6437 97.4788 89.1866 97.6758C89.3377 97.7308 89.3427 97.8558 89.2857 98.0218C87.8537 102.202 88.6687 101.925 87.6197 102.107C78.0647 103.768 58.9887 109.806 52.4117 113.92C48.2887 116.5 48.3607 116.559 48.3947 116.256C48.6037 114.428 49.9397 106.755 51.0367 103.476C51.0847 103.332 52.4757 99.2468 52.9037 98.8498C57.8107 94.2948 57.4037 95.3948 60.3887 87.7348C61.8177 84.0678 62.2077 83.5848 62.1287 82.7138C62.0187 81.4998 60.6637 81.7328 59.8337 82.6238C57.9217 84.6758 57.6177 86.0178 56.7797 87.3558C56.5767 87.6798 56.3537 87.6578 55.6467 87.7608C55.2317 87.8218 55.4487 87.4198 55.3447 86.7598C54.5057 81.4248 56.9027 79.6138 58.3487 72.6088C58.5617 71.5798 57.1287 70.1038 55.8057 72.0468C52.4527 76.9688 51.5357 82.3578 50.8467 81.6088C50.7717 81.5268 50.6937 81.4108 50.6907 81.3078C50.6567 79.9908 51.0657 76.3828 51.0707 76.3578C51.2387 75.5848 51.5077 70.0658 50.9217 69.0758C50.2127 67.8758 48.9897 68.3438 48.5587 69.5708C46.8457 74.4518 47.4237 73.3588 46.3557 79.7318C46.3157 79.9708 46.2397 80.0288 45.9397 80.0638C45.7387 80.0868 45.5747 80.0588 45.5207 79.8328C44.0847 73.8948 44.9187 71.8008 43.3467 70.6318C42.6977 70.1498 41.7627 70.3198 41.5147 71.1238C40.6497 73.9258 41.2637 75.8028 41.6417 79.8948C41.8087 81.7068 41.8027 81.6908 41.5967 81.7898C41.1277 82.0148 41.1377 81.6908 37.4007 75.7968C36.4977 74.3728 35.4337 74.5398 35.0787 75.3328C34.3877 76.8718 37.1817 82.5588 38.1047 83.8308C38.6277 84.5518 38.5467 84.9898 38.7657 87.3688C39.4247 94.5538 42.1517 96.4768 41.8757 97.0978C41.6587 97.5858 41.5797 98.1268 41.2557 98.5758C38.1657 102.855 39.4017 101.971 33.0267 107.989C30.3117 110.552 24.2587 115.713 21.6367 120.359C21.3047 120.946 21.7547 121.315 22.3037 120.897C22.3657 120.85 23.4577 119.765 23.9057 119.265C34.3727 107.587 38.0297 107.5 42.9147 97.5408C43.3407 96.6718 42.9607 95.9008 42.4077 95.0978C40.4817 92.3018 40.3617 89.2538 40.1887 88.0568C39.5367 83.5488 38.1767 82.3538 35.9677 76.6018C35.6857 75.8668 36.1287 75.5178 36.3097 75.7298C37.0477 76.6008 36.4127 75.6668 38.6757 79.3978C41.0027 83.2338 40.8347 83.2548 42.3867 82.5358C43.7787 81.8908 41.4557 74.4768 42.3457 71.4558C42.4497 71.1048 42.5437 71.0798 42.8467 71.2588C44.0897 71.9918 43.8157 78.0098 44.7227 80.5588C44.8827 81.0088 45.3537 81.1288 45.8157 81.0898C46.1267 81.0638 46.4287 80.9288 46.7327 80.8348C46.9567 80.7658 47.1137 80.6168 47.1817 80.3898C47.8477 78.1638 48.6647 69.2888 49.8277 69.7148C50.9937 70.1418 50.1557 74.4248 49.7147 79.6438C49.4897 82.3098 49.4047 82.3888 51.3437 82.7268C51.9927 82.8398 52.2167 81.1038 56.1247 73.2998C56.5637 72.4228 57.2127 72.1098 57.2057 73.0918C57.1927 74.9188 53.8697 80.8768 53.9507 85.1248C53.9527 85.2528 53.9397 85.1278 54.3957 87.7728C54.5107 88.4368 54.1547 87.7108 51.4307 90.0028C50.1187 91.1068 50.1717 92.0788 50.7237 91.7348C51.3177 91.3658 51.9267 91.0148 52.4827 90.5948C55.9797 87.9538 56.9277 89.6408 57.7757 87.9378C59.0767 85.3248 59.4477 84.8568 60.8287 83.1648C60.8767 83.1058 61.0007 83.1078 61.0887 83.0818C61.2577 83.6648 60.1487 85.7768 59.4087 87.8038C56.0867 96.8998 52.4217 96.3148 51.2977 99.5698C50.1107 103.008 49.3897 104.711 47.5607 114.096C47.5547 114.124 44.0827 132.821 44.0717 133.212C44.0507 133.925 44.5907 134.125 44.9007 133.394C45.3507 132.331 46.3317 127.891 46.5197 127.039C47.5997 122.14 47.7427 118.239 48.3497 117.742C54.3377 112.838 72.1297 107.467 79.6207 105.162C80.3097 104.95 79.8907 105.349 81.1077 107.144C87.7207 116.898 93.7707 119.681 100.26 122.802C100.83 123.076 101.789 123.482 102.754 122.879C104.648 121.695 108.875 117.815 112.134 115.164C120.386 108.453 120.24 105.264 121.065 105.538C128.546 108.018 134.865 110.335 141.177 113.764L142.24 112.769L142.241 112.77ZM119.001 63.1678C123.352 65.2638 122.479 75.9928 122.866 76.0328C122.593 78.4728 122.771 79.8318 120.734 80.5038C120.391 80.6168 121.092 80.3378 120.195 72.4348C119.797 68.9268 119.92 67.3068 119.188 64.7608C118.87 63.6558 118.087 62.7278 119.001 63.1678ZM115.88 62.8708C117.807 62.9498 118.371 64.7448 119.307 77.3118C119.353 77.9348 119.279 78.5748 119.338 78.5748C119.338 80.9368 119.349 80.8068 116.179 81.5898C116.003 81.6328 115.958 81.5588 115.964 81.4168C116.84 61.4298 112.135 62.7178 115.88 62.8708ZM72.7247 85.0148C71.2947 81.2378 68.7647 71.8148 72.3027 70.4758C72.3107 70.6788 72.3347 70.4818 72.2017 71.2288C71.6367 74.4038 75.8187 87.6898 75.8197 87.7138C74.0417 87.6538 73.4447 86.9178 72.7247 85.0148ZM78.7887 87.5078C76.6317 87.8188 76.4907 85.6668 75.2567 80.5598C72.7467 70.1678 72.6287 69.8748 76.4187 68.9668C77.0447 68.8168 76.8417 68.7978 77.0567 70.2488C78.7407 81.6048 79.8927 83.2478 80.9147 86.9798C81.0287 87.3968 80.8787 87.2058 78.7887 87.5078ZM119.219 105.274C113.207 112.78 109.546 116.107 101.819 121.832C101.613 121.985 101.444 122.009 101.216 121.901C90.9287 117.065 87.5867 113.717 82.4237 106.8C80.8137 104.643 80.8827 104.818 81.4147 104.685C86.0967 103.511 88.4437 103.458 88.7847 102.933C89.3327 102.092 90.0676 100.41 90.3387 99.7018C90.5496 99.1498 90.6507 98.5548 90.7807 97.9748C90.8617 97.6118 90.7397 97.3258 90.4267 97.0908C83.1797 91.6618 81.5357 85.7248 78.5977 72.7708C77.0567 65.9738 78.4207 61.8088 81.2097 58.3818C82.8137 56.4118 83.9647 55.3098 86.0257 54.0098C87.3917 53.1478 87.5017 52.9028 87.8747 53.0068C90.4226 53.7168 93.6897 52.5898 95.9877 51.2798C96.8707 50.7768 100.065 51.2568 101.044 51.5288C109.003 53.7388 112.34 59.2278 113.893 66.3838C115.702 74.7178 114.708 79.8498 114.188 84.4318C113.376 91.5778 112.342 92.5978 112.737 97.8268C113.114 102.819 114.145 103.032 116.451 103.919C119.281 105.008 119.583 104.819 119.218 105.273L119.219 105.274Z" fill="black"/>
<path d="M60.1067 114.805C52.3177 116.938 50.3467 126.825 56.7337 131.541C61.9557 135.397 69.7647 133.013 71.8267 127.01C74.4537 119.362 67.4977 112.781 60.1067 114.805ZM63.6887 132.153C52.3227 133.057 50.4397 118.097 60.8517 115.68C64.5067 114.831 69.0117 116.505 70.8747 120.975C72.9937 126.058 68.9937 131.731 63.6887 132.153Z" fill="black"/>
<path d="M121.224 112.885C116.57 113.553 112.76 117.857 113.125 123.071C113.77 132.29 126.311 134.923 131.157 127.054C135.197 120.495 130.24 111.591 121.224 112.885ZM124.851 130.283C118.774 131.762 113.477 126.636 114.164 121.292C114.815 116.222 119.804 112.902 124.746 113.994C133.843 116.004 133.796 128.106 124.851 130.283Z" fill="black"/>
<path d="M154.604 116.125C149.162 107.308 134.785 112.536 136.707 123.035C138.672 133.768 155.511 133.302 156.001 120.867C155.852 119.481 155.812 118.083 154.604 116.125ZM147.584 129.384C142.365 130.279 137.429 125.881 137.527 121.508C137.733 112.284 149.572 109.659 153.84 116.925C157.041 122.375 153.443 128.38 147.584 129.384Z" fill="black"/>
<path d="M55.2167 124.392C55.2937 125.79 55.3637 126.761 56.6887 127.231C58.0827 127.726 60.1117 127.265 60.5287 125.904C60.8657 124.805 60.2227 124.538 60.7717 124.303C61.2077 124.116 61.7507 123.816 63.1507 123.784C64.8737 123.98 65.0837 123.886 65.0867 124.538C65.0917 125.58 64.9067 126.113 65.6797 126.595C66.3867 127.036 67.6787 127.175 69.0197 126.572C70.3707 125.965 71.0927 123.099 68.9357 121.493C64.1927 117.961 55.0057 120.569 55.2177 124.391L55.2167 124.392ZM69.2937 124.472C69.1257 125.654 67.8587 125.679 66.7437 125.62C65.4137 125.55 68.0447 122.707 63.1257 122.627C62.1017 122.61 60.1907 122.935 59.6007 123.88C59.3757 124.24 59.4367 124.934 59.4547 125.342C59.4957 126.299 57.9167 126.337 57.0097 126.031C56.2677 125.781 55.7437 124.548 56.7357 122.886C56.8127 122.757 58.0917 121.753 58.8907 121.533C60.6967 121.037 62.2987 120.739 65.1647 120.978C67.2367 121.151 69.5837 122.428 69.2937 124.472Z" fill="black"/>
<path d="M126.868 120.721C126.431 120.559 126.088 121.172 126.106 121.501C126.215 123.496 126.265 122.868 126.033 124.038C125.675 125.846 122.977 125.273 122.298 125.435C121.611 125.599 121.002 125.392 120.382 125.173C118.92 124.657 119.443 121.197 118.87 120.984C118.475 120.838 118.065 121.149 118.078 121.603C118.085 121.86 118.14 122.116 118.17 122.372C118.445 124.772 118.279 126.461 121.723 126.675C122.122 126.7 122.125 126.655 122.14 127.017C122.158 127.46 122.246 127.692 121.921 127.691C121.051 127.688 120.505 127.627 119.8 127.91C119.49 128.034 119.424 128.575 119.832 128.685C120.315 128.815 120.201 128.787 122.82 128.787C122.82 128.669 125.434 129.009 126.017 128.566C126.525 128.18 126.001 127.661 125.49 127.669C124.594 127.684 123.74 127.705 123.732 127.587C123.667 126.596 123.73 126.629 123.921 126.585C126.476 126 127.498 125.634 127.218 121.167C127.204 120.936 127.056 120.789 126.87 120.72L126.868 120.721Z" fill="black"/>
<path d="M121.642 124.512C126.47 126.04 124.821 120.299 125.182 120.298C125.182 117.988 125.24 117.839 124.925 116.791C124.544 115.524 122.64 115.164 121.651 115.686C120.347 116.374 120.401 117.247 120.374 120.896C120.361 122.687 120.314 124.092 121.643 124.513L121.642 124.512ZM122.359 116.52C124.027 116.258 123.986 117.21 124.221 119.731C124.019 123.345 124.223 123.55 122.873 123.588C120.955 123.642 121.75 122.665 121.434 119.317C121.335 118.271 121.321 116.683 122.359 116.52Z" fill="black"/>
<path d="M152.733 118.507C152.175 117.974 151.708 118.524 150.226 119.65C149.741 120.018 150.146 118.704 149.015 118.303C148.842 118.241 148.948 118.145 148.983 118.072C149.251 117.505 149.412 116.946 149.26 116.291C148.509 113.049 143.891 114.908 145.254 117.901C145.367 118.15 145.358 118.154 145.115 118.184C144.498 118.26 144.49 118.257 144.678 117.677C145.038 116.564 144.489 115.297 143.157 114.938C141.894 114.598 140.565 115.729 140.539 117.137C140.517 118.364 141.385 118.487 140.83 118.704C140.395 118.874 140.055 119.086 139.967 119.541C139.688 120.972 139.9 124.043 140.109 124.596C140.289 125.07 140.596 125.458 141.123 125.508C142.073 125.599 143.024 125.748 143.986 125.55C144.417 125.461 149.598 126.021 149.845 124.809C150.145 123.336 150.064 123.426 150.378 123.591C153.436 125.198 153.084 125.248 153.084 121.838C153.108 121.838 153.209 118.962 152.733 118.507ZM147.178 115.407C147.788 115.401 148.385 116.021 148.389 116.665C148.393 117.29 147.817 117.921 147.232 117.884C145.255 117.758 145.916 115.42 147.178 115.407ZM143.767 117.001C143.787 118.279 141.51 118.568 141.509 116.975C141.509 115.444 143.74 115.31 143.767 117.001ZM148.886 123.105C148.866 124.203 148.973 124.207 148.148 124.372C147.879 124.426 142.71 124.519 141.625 124.429C140.977 124.375 140.983 123.396 140.933 122.139C140.845 119.921 140.821 119.723 141.492 119.498C142.443 119.179 145.718 119.231 145.718 119.255C148.916 119.255 148.654 119.137 148.832 119.776C149.123 120.823 148.925 120.977 148.886 123.104V123.105ZM152.125 122.151C152.125 123.637 152.379 123.565 150.547 122.569C150.089 122.32 150.022 122.1 150.037 121.561C150.05 121.112 150.204 120.823 150.585 120.591C151.477 120.048 151.952 119.307 151.999 120.007C152.143 122.149 152.164 122.148 152.125 122.151Z" fill="black"/>
<path d="M182.759 10.5848C175.746 5.32776 162.828 3.94076 154.295 5.75976C131.497 10.6218 128.938 37.5908 146.267 46.3748C148.113 47.3108 148.2 47.1808 148.079 47.5028C147.48 49.1038 144.581 55.6688 143.383 57.1818C141.244 59.8838 152.199 58.0358 158.858 50.1328C159.508 49.3608 163.282 49.9138 164.581 50.0258C171.358 49.5588 171.227 49.5888 174.169 48.7808C191.834 43.9308 197.556 21.6758 182.758 10.5838L182.759 10.5848ZM174.195 46.7248C169.88 47.8658 171.548 47.6998 166.444 48.2418C159.676 48.9608 159.628 47.7298 158.303 48.9808C155.201 51.9078 154.152 52.7158 149.955 54.9578C148.567 55.6998 146.061 56.6438 145.273 56.6518C145.531 56.0088 146.109 55.8078 148.398 50.3558C150.285 45.8618 149.731 46.7378 146.898 44.8818C143.312 42.5318 140.35 40.4008 138.211 35.5818C134.067 26.2488 137.072 9.03976 159.575 7.22376C160.791 7.12576 162.01 7.07875 163.228 7.00875C163.237 7.26075 166.098 6.87676 169.544 7.61076C171.425 8.01076 170.496 7.58476 172.59 8.15876C175.194 8.87276 178.778 9.70576 182.402 12.7458C195.256 23.5308 189.685 42.6298 174.196 46.7258L174.195 46.7248Z" fill="black"/>
<path d="M162.547 26.2547C160.838 26.2477 159.787 27.8907 159.801 29.1097C159.84 32.6987 165.226 32.8877 165.323 28.9277C165.362 27.3297 164.119 26.2607 162.548 26.2547H162.547Z" fill="black"/>
<path d="M151.903 26.0989C150.381 26.0179 149.091 27.6459 149.072 28.9519C149.051 30.3809 150.325 31.7309 151.757 31.6669C155.084 31.8929 155.935 26.3139 151.904 26.0989H151.903Z" fill="black"/>
<path d="M172.857 25.9668C171.384 25.8328 170.137 27.4948 170.138 28.8208C170.14 30.2658 171.439 31.5248 172.86 31.5288C176.356 31.5368 176.849 25.9008 172.856 25.9678L172.857 25.9668Z" fill="black"/>
</svg>
